<?xml version="1.0" encoding="UTF-8"?><!DOCTYPE svg PUBLIC "-//W3C//DTD SVG 1.1//EN" "http://www.w3.org/Graphics/SVG/1.1/DTD/svg11.dtd"><svg xmlns="http://www.w3.org/2000/svg" xmlns:xlink="http://www.w3.org/1999/xlink"><symbol id="arrow-line-bold" viewBox="0 0 24 24"><g fill="none">
<path fill-rule="evenodd" clip-rule="evenodd" d="M14.2929 5.29289C14.6835 4.90237 15.3166 4.90237 15.7071 5.2929L21.7071 11.2929C22.0976 11.6834 22.0976 12.3166 21.7071 12.7071L15.7071 18.7071C15.3166 19.0976 14.6835 19.0976 14.2929 18.7071C13.9024 18.3166 13.9024 17.6834 14.2929 17.2929L18.5858 13H3C2.44772 13 2 12.5523 2 12C2 11.4477 2.44772 11 3 11H18.5858L14.2929 6.7071C13.9024 6.31658 13.9024 5.68341 14.2929 5.29289Z" fill="currentColor"/>
</g></symbol><symbol id="arrow-line" viewBox="0 0 24 24"><g fill="none">
<path fill-rule="evenodd" clip-rule="evenodd" d="M15.4697 7.46967C15.7626 7.17678 16.2374 7.17678 16.5303 7.46967L19.8232 10.7626C20.5066 11.446 20.5066 12.554 19.8232 13.2374L16.5303 16.5303C16.2374 16.8232 15.7626 16.8232 15.4697 16.5303C15.1768 16.2374 15.1768 15.7626 15.4697 15.4697L18.1893 12.75L5 12.75C4.58579 12.75 4.25 12.4142 4.25 12C4.25 11.5858 4.58579 11.25 5 11.25L18.1893 11.25L15.4697 8.53033C15.1768 8.23744 15.1768 7.76256 15.4697 7.46967Z" fill="currentColor"/>
</g></symbol><symbol id="arrow" viewBox="0 0 24 24"><g fill="none">
<path fill-rule="evenodd" clip-rule="evenodd" d="M8.46967 18.5303C8.76256 18.8232 9.23744 18.8232 9.53033 18.5303L15.5303 12.5303C15.671 12.3897 15.75 12.1989 15.75 12C15.75 11.8011 15.671 11.6103 15.5303 11.4697L9.53033 5.46967C9.23744 5.17678 8.76256 5.17678 8.46967 5.46967C8.17678 5.76256 8.17678 6.23744 8.46967 6.53033L13.9393 12L8.46967 17.4697C8.17678 17.7626 8.17678 18.2374 8.46967 18.5303Z" fill="currentColor"/>
</g></symbol><symbol id="calling" viewBox="0 0 24 24"><g fill="none">
<path fill-rule="evenodd" clip-rule="evenodd" d="M14.2949 3.40783C14.436 3.01839 14.8661 2.81705 15.2555 2.95814C16.6913 3.4783 18.0379 4.31389 19.1872 5.4632C20.3654 6.64137 21.2139 8.02684 21.7308 9.50313C21.8677 9.89407 21.6618 10.322 21.2709 10.4589C20.8799 10.5958 20.452 10.3898 20.3151 9.99889C19.871 8.73058 19.1421 7.53937 18.1266 6.52386C17.1359 5.53317 15.978 4.81529 14.7446 4.36844C14.3551 4.22736 14.1538 3.79728 14.2949 3.40783ZM4.53818 3.87172C5.73532 2.67459 7.67419 2.73015 8.86821 3.92417L10.8613 5.91726C12.0553 7.11128 12.1109 9.05016 10.9137 10.2473L10.6374 10.5237C10.4291 10.7319 10.4067 11.0695 10.6046 11.3094C11.0218 11.8149 11.4692 12.3156 11.9522 12.7987C12.4353 13.2817 12.936 13.7292 13.4415 14.1463C13.6814 14.3442 14.019 14.3218 14.2272 14.1136L14.5036 13.8372C15.7008 12.64 17.6396 12.6956 18.8337 13.8896L20.8267 15.8827C22.0208 17.0767 22.0763 19.0156 20.8792 20.2127L19.5924 21.4995C18.2847 22.8072 16.1453 22.7014 14.0638 21.9377C11.9173 21.1501 9.52188 19.5668 7.35299 17.3979C5.18409 15.229 3.60079 12.8336 2.81323 10.6871C2.04952 8.6056 1.9437 6.46621 3.25142 5.15849L4.53818 3.87172ZM7.80755 4.98483C7.16698 4.34426 6.17837 4.35286 5.59884 4.93238L4.31208 6.21915C4.31208 6.21915 4.31208 6.21915 4.31208 6.21915C3.66548 6.86575 3.50067 8.20598 4.22144 10.1704C4.91835 12.0699 6.36299 14.2866 8.41365 16.3373C10.4643 18.3879 12.6811 19.8326 14.5805 20.5295C16.5449 21.2502 17.8852 21.0854 18.5318 20.4388L19.8185 19.1521C20.3981 18.5725 20.4067 17.5839 19.7661 16.9434L17.773 14.9503C17.1324 14.3097 16.1438 14.3183 15.5643 14.8978L15.2879 15.1742C14.5369 15.9252 13.3271 15.9966 12.4868 15.3032C11.9505 14.8606 11.4135 14.3812 10.8916 13.8593C10.3697 13.3374 9.89027 12.8004 9.44768 12.2641C8.75428 11.4238 8.82569 10.214 9.5767 9.46301L9.85309 9.18663C10.4326 8.6071 10.4412 7.61849 9.80064 6.97792L7.80755 4.98483ZM14.3125 6.76655C14.478 6.38683 14.92 6.21317 15.2997 6.37866C15.9418 6.65852 16.5426 7.06085 17.066 7.58428C17.6208 8.13909 18.0395 8.78069 18.3205 9.46621C18.4776 9.84947 18.2943 10.2875 17.911 10.4446C17.5278 10.6018 17.0897 10.4184 16.9326 10.0352C16.7256 9.53033 16.4171 9.05667 16.0053 8.64494C15.6168 8.25641 15.1732 7.95981 14.7004 7.75374C14.3207 7.58825 14.147 7.14627 14.3125 6.76655Z" fill="currentColor"/>
</g></symbol><symbol id="cart" viewBox="0 0 24 24"><g fill="none">
<path fill-rule="evenodd" clip-rule="evenodd" d="M1.26446 2.85294C1.3457 2.44677 1.74082 2.18335 2.14699 2.26459L3.19635 2.47446C4.3816 2.71151 5.27311 3.6947 5.39338 4.89742L5.47864 5.75002H19.0541C21.0384 5.75002 22.4943 7.61476 22.0131 9.53975L20.8903 14.0308C20.4173 15.9228 18.7174 17.25 16.7672 17.25H7.77425C6.3822 17.25 5.20969 16.2098 5.04384 14.8277L4.05524 6.58938L4.05362 6.57465L3.90083 5.04668C3.84616 4.49998 3.44092 4.05308 2.90217 3.94533L1.85281 3.73546C1.44664 3.65422 1.18323 3.25911 1.26446 2.85294ZM5.64528 7.25002L6.53315 14.649C6.60854 15.2772 7.1415 15.75 7.77425 15.75H16.7672C18.0291 15.75 19.129 14.8912 19.4351 13.667L20.5578 9.17595C20.8024 8.19767 20.0625 7.25002 19.0541 7.25002H5.64528ZM8.2499 13.5C8.2499 13.0858 8.58569 12.75 8.9999 12.75H12.9999C13.4141 12.75 13.7499 13.0858 13.7499 13.5C13.7499 13.9142 13.4141 14.25 12.9999 14.25H8.9999C8.58569 14.25 8.2499 13.9142 8.2499 13.5Z" fill="currentColor"/>
<path d="M10 20C10 20.8284 9.32843 21.5 8.5 21.5C7.67157 21.5 7 20.8284 7 20C7 19.1716 7.67157 18.5 8.5 18.5C9.32843 18.5 10 19.1716 10 20Z" fill="currentColor"/>
<path d="M19 20C19 20.8284 18.3284 21.5 17.5 21.5C16.6716 21.5 16 20.8284 16 20C16 19.1716 16.6716 18.5 17.5 18.5C18.3284 18.5 19 19.1716 19 20Z" fill="currentColor"/>
</g></symbol><symbol id="check" viewBox="0 0 24 24"><g fill="none">
<path fill-rule="evenodd" clip-rule="evenodd" d="M11.5974 15.5459C11.3463 15.797 10.9393 15.797 10.6882 15.5459L7.6578 12.5155C7.40674 12.2644 7.40674 11.8574 7.6578 11.6063C7.90885 11.3553 8.31588 11.3553 8.56693 11.6063L11.1428 14.1822L16.7492 8.57587C17.0002 8.32482 17.4073 8.32482 17.6583 8.57587C17.9094 8.82692 17.9094 9.23395 17.6583 9.485L11.5974 15.5459Z" fill="currentColor"/>
</g></symbol><symbol id="close" viewBox="0 0 24 24"><g fill="none">
<path d="M18 6L6 18M6 6L18 18" stroke="currentColor" stroke-width="1.5" stroke-linecap="round" stroke-linejoin="round"/>
</g></symbol><symbol id="danger" viewBox="0 0 24 24"><g fill="none">
<path fill-rule="evenodd" clip-rule="evenodd" d="M11.0981 2.41547C11.6935 2.2964 12.3065 2.2964 12.9019 2.41547C14.2248 2.68006 15.3648 3.5122 16.02 4.69153L22.2059 15.8262C22.5627 16.4685 22.75 17.1912 22.75 17.926C22.75 20.3141 20.8141 22.25 18.4261 22.25H5.57391C3.18588 22.25 1.25 20.3141 1.25 17.926C1.25 17.1912 1.43727 16.4685 1.79413 15.8262L7.98005 4.69153C8.63523 3.5122 9.77522 2.68006 11.0981 2.41547ZM12.6077 3.88635C12.2065 3.80611 11.7935 3.80611 11.3923 3.88635C10.5009 4.06463 9.73276 4.62534 9.29128 5.41999L3.10537 16.5546C2.8723 16.9741 2.75 17.4461 2.75 17.926C2.75 19.4856 4.01431 20.75 5.57391 20.75H18.4261C19.9857 20.75 21.25 19.4856 21.25 17.926C21.25 17.4461 21.1277 16.9741 20.8946 16.5546L14.7087 5.41999C14.2672 4.62534 13.4991 4.06463 12.6077 3.88635ZM12 8.24995C12.4142 8.24995 12.75 8.58574 12.75 8.99995V13C12.75 13.4142 12.4142 13.75 12 13.75C11.5858 13.75 11.25 13.4142 11.25 13V8.99995C11.25 8.58574 11.5858 8.24995 12 8.24995ZM12 15.25C12.4142 15.25 12.75 15.5857 12.75 16V16.5C12.75 16.9142 12.4142 17.25 12 17.25C11.5858 17.25 11.25 16.9142 11.25 16.5V16C11.25 15.5857 11.5858 15.25 12 15.25Z" fill="currentColor"/>
</g></symbol><symbol id="doc" viewBox="0 0 24 24"><g fill="none">
<path fill-rule="evenodd" clip-rule="evenodd" d="M3.25 6C3.25 3.37665 5.37665 1.25 8 1.25H16C18.6234 1.25 20.75 3.37665 20.75 6V18C20.75 20.6234 18.6234 22.75 16 22.75H8C5.37665 22.75 3.25 20.6234 3.25 18V6ZM8 2.75C6.20507 2.75 4.75 4.20507 4.75 6V18C4.75 19.7949 6.20507 21.25 8 21.25H16C17.7949 21.25 19.25 19.7949 19.25 18V6C19.25 4.20507 17.7949 2.75 16 2.75H8ZM7.25 7C7.25 6.58579 7.58579 6.25 8 6.25H16C16.4142 6.25 16.75 6.58579 16.75 7C16.75 7.41421 16.4142 7.75 16 7.75H8C7.58579 7.75 7.25 7.41421 7.25 7ZM7.25 12C7.25 11.5858 7.58579 11.25 8 11.25H16C16.4142 11.25 16.75 11.5858 16.75 12C16.75 12.4142 16.4142 12.75 16 12.75H8C7.58579 12.75 7.25 12.4142 7.25 12ZM7.25 17C7.25 16.5858 7.58579 16.25 8 16.25H12C12.4142 16.25 12.75 16.5858 12.75 17C12.75 17.4142 12.4142 17.75 12 17.75H8C7.58579 17.75 7.25 17.4142 7.25 17Z" fill="currentColor"/>
</g></symbol><symbol id="download" viewBox="0 0 34 24"><g fill="none">
<path fill-rule="evenodd" clip-rule="evenodd" d="M16.2648 0.96C11.6027 0.96 7.77549 4.47717 7.3631 8.96337C7.33997 9.21526 7.12582 9.40519 6.87303 9.40458H6.87289C4.3236 9.39773 2.18578 11.4786 2.18578 13.9911C2.18578 16.5231 4.26859 18.5778 6.84055 18.5778H7.86864C8.13689 18.5778 8.35436 18.7927 8.35436 19.0578C8.35436 19.3229 8.13689 19.5378 7.86864 19.5378H6.84055C3.73449 19.5378 1.21436 17.0557 1.21436 13.9911C1.21436 11.0833 3.55894 8.67386 6.44307 8.46C7.09224 3.68253 11.2428 0 16.2648 0C20.0231 0 23.2925 2.06256 24.9721 5.10097C29.1822 4.70326 33.0286 8.05514 33.0286 12.3022C33.0286 16.0555 30.1307 19.1392 26.4222 19.5021C26.1553 19.5282 25.9174 19.3356 25.891 19.0718C25.8646 18.8079 26.0595 18.5729 26.3265 18.5468C29.545 18.2318 32.0572 15.555 32.0572 12.3022C32.0572 8.53296 28.5329 5.55613 24.7703 6.09144C24.5638 6.12082 24.3576 6.01769 24.2617 5.82913L24.2617 5.82905C22.7939 2.94141 19.764 0.96 16.2648 0.96ZM24.6318 5.14125C24.6318 5.14124 24.6318 5.14124 24.6319 5.14123ZM17.6072 13.7967L20.6338 16.7798C20.8237 16.967 21.1313 16.9666 21.3207 16.7789C21.5101 16.5912 21.5097 16.2873 21.3198 16.1001L17.6462 12.4793C17.3563 12.1935 16.8867 12.1935 16.5967 12.4793L12.9231 16.1001C12.7332 16.2873 12.7328 16.5912 12.9222 16.7789C13.1117 16.9666 13.4192 16.967 13.6091 16.7798L16.6358 13.7966L16.6358 23.28C16.6358 23.5451 16.8532 23.76 17.1215 23.76C17.3898 23.76 17.6072 23.5451 17.6072 23.28V13.7967Z" fill="currentColor"/>
</g></symbol><symbol id="filter" viewBox="0 0 24 24"><g fill="none">
<path fill-rule="evenodd" clip-rule="evenodd" d="M10.25 7C10.25 6.58579 10.5858 6.25 11 6.25L21 6.25C21.4142 6.25 21.75 6.58579 21.75 7C21.75 7.41421 21.4142 7.75 21 7.75L11 7.75C10.5858 7.75 10.25 7.41421 10.25 7Z" fill="currentColor"/>
<path fill-rule="evenodd" clip-rule="evenodd" d="M5 5.75C5.69036 5.75 6.25 6.30964 6.25 7C6.25 7.69036 5.69036 8.25 5 8.25C4.30964 8.25 3.75 7.69036 3.75 7C3.75 6.30964 4.30964 5.75 5 5.75ZM7.75 7C7.75 5.48122 6.51878 4.25 5 4.25C3.48122 4.25 2.25 5.48122 2.25 7C2.25 8.51878 3.48122 9.75 5 9.75C6.51878 9.75 7.75 8.51878 7.75 7Z" fill="currentColor"/>
<path fill-rule="evenodd" clip-rule="evenodd" d="M13.75 17C13.75 16.5858 13.4142 16.25 13 16.25L3 16.25C2.58579 16.25 2.25 16.5858 2.25 17C2.25 17.4142 2.58579 17.75 3 17.75L13 17.75C13.4142 17.75 13.75 17.4142 13.75 17Z" fill="currentColor"/>
<path fill-rule="evenodd" clip-rule="evenodd" d="M19 15.75C18.3096 15.75 17.75 16.3096 17.75 17C17.75 17.6904 18.3096 18.25 19 18.25C19.6904 18.25 20.25 17.6904 20.25 17C20.25 16.3096 19.6904 15.75 19 15.75ZM16.25 17C16.25 15.4812 17.4812 14.25 19 14.25C20.5188 14.25 21.75 15.4812 21.75 17C21.75 18.5188 20.5188 19.75 19 19.75C17.4812 19.75 16.25 18.5188 16.25 17Z" fill="currentColor"/>
</g></symbol><symbol id="info" viewBox="0 0 24 24"><g fill="none">
<path fill-rule="evenodd" clip-rule="evenodd" d="M1.25 7C1.25 3.82436 3.82436 1.25 7 1.25H17C20.1756 1.25 22.75 3.82436 22.75 7V17C22.75 20.1756 20.1756 22.75 17 22.75H7C3.82436 22.75 1.25 20.1756 1.25 17V7ZM7 2.75C4.65279 2.75 2.75 4.65279 2.75 7V17C2.75 19.3472 4.65279 21.25 7 21.25H17C19.3472 21.25 21.25 19.3472 21.25 17V7C21.25 4.65279 19.3472 2.75 17 2.75H7Z" fill="currentColor"/>
<path fill-rule="evenodd" clip-rule="evenodd" d="M12.5 10.25C12.9142 10.25 13.25 10.5858 13.25 11L13.25 17C13.25 17.4142 12.9142 17.75 12.5 17.75C12.0858 17.75 11.75 17.4142 11.75 17L11.75 11C11.75 10.5858 12.0858 10.25 12.5 10.25Z" fill="currentColor"/>
<path fill-rule="evenodd" clip-rule="evenodd" d="M13.25 11C13.25 11.4142 12.9142 11.75 12.5 11.75L10.5 11.75C10.0858 11.75 9.75 11.4142 9.75 11C9.75 10.5858 10.0858 10.25 10.5 10.25L12.5 10.25C12.9142 10.25 13.25 10.5858 13.25 11Z" fill="currentColor"/>
<path fill-rule="evenodd" clip-rule="evenodd" d="M12.5 6.25C12.9142 6.25 13.25 6.58579 13.25 7L13.25 8C13.25 8.41421 12.9142 8.75 12.5 8.75C12.0858 8.75 11.75 8.41421 11.75 8L11.75 7C11.75 6.58579 12.0858 6.25 12.5 6.25Z" fill="currentColor"/>
</g></symbol><symbol id="mail" viewBox="0 0 24 24"><g fill="none">
<path fill-rule="evenodd" clip-rule="evenodd" d="M1.25 9C1.25 5.82436 3.82436 3.25 7 3.25H17C20.1756 3.25 22.75 5.82436 22.75 9V15C22.75 18.1756 20.1756 20.75 17 20.75H7C3.82436 20.75 1.25 18.1756 1.25 15V9ZM7 4.75C4.65279 4.75 2.75 6.65279 2.75 9V15C2.75 17.3472 4.65279 19.25 7 19.25H17C19.3472 19.25 21.25 17.3472 21.25 15V9C21.25 6.65279 19.3472 4.75 17 4.75H7ZM5.4 8.55C5.64853 8.21863 6.11863 8.15147 6.45 8.4L11.25 12C11.6944 12.3333 12.3056 12.3333 12.75 12L17.55 8.4C17.8814 8.15147 18.3515 8.21863 18.6 8.55C18.8485 8.88137 18.7814 9.35147 18.45 9.6L13.65 13.2C12.6722 13.9333 11.3278 13.9333 10.35 13.2L5.55 9.6C5.21863 9.35147 5.15147 8.88137 5.4 8.55Z" fill="currentColor"/>
</g></symbol><symbol id="minus" viewBox="0 0 24 24"><g fill="none">
<path fill-rule="evenodd" clip-rule="evenodd" d="M4.66675 12C4.66675 11.2636 5.2637 10.6666 6.00008 10.6666L18.0001 10.6666C18.7365 10.6666 19.3334 11.2636 19.3334 12C19.3334 12.7363 18.7365 13.3333 18.0001 13.3333L6.00008 13.3333C5.2637 13.3333 4.66675 12.7363 4.66675 12Z" fill="currentColor"/>
</g></symbol><symbol id="plus" viewBox="0 0 24 24"><g fill="none">
<path fill-rule="evenodd" clip-rule="evenodd" d="M12.0001 4.66663C12.7365 4.66663 13.3334 5.26358 13.3334 5.99996V10.6666H18.0001C18.7365 10.6666 19.3334 11.2636 19.3334 12C19.3334 12.7363 18.7365 13.3333 18.0001 13.3333H13.3334V18C13.3334 18.7363 12.7365 19.3333 12.0001 19.3333C11.2637 19.3333 10.6667 18.7363 10.6667 18V13.3333H6.00008C5.2637 13.3333 4.66675 12.7363 4.66675 12C4.66675 11.2636 5.2637 10.6666 6.00008 10.6666H10.6667V5.99996C10.6667 5.26358 11.2637 4.66663 12.0001 4.66663Z" fill="currentColor"/>
</g></symbol><symbol id="rocket" viewBox="0 0 24 24"><g fill="none">
<path fill-rule="evenodd" clip-rule="evenodd" d="M19.672 1.63679C21.2859 1.42571 22.6159 2.7557 22.4048 4.36957C22.0963 6.72858 21.2492 10.7361 18.8537 13.3189C18.0915 14.1407 17.1708 14.9 16.224 15.5747L16.5007 17.5111C16.5786 18.0564 16.3952 18.6065 16.0057 18.996L12.8237 22.178C11.804 23.1977 10.0578 22.6157 9.85387 21.1881L9.4296 18.2182L9.43088 18.218C9.15992 18.0869 8.90869 17.9095 8.68981 17.6906L6.35095 15.3518C6.13206 15.1329 5.95467 14.8816 5.82353 14.6107L5.82334 14.612L2.85349 14.1877C1.4259 13.9838 0.843835 12.2376 1.86354 11.2179L5.04552 8.0359C5.43501 7.64641 5.98515 7.46303 6.53044 7.54093L8.46691 7.81756C9.14155 6.87078 9.90087 5.95013 10.7227 5.18793C13.3055 2.79242 17.313 1.94531 19.672 1.63679ZM7.54587 9.20122L6.31831 9.02585C6.24041 9.01472 6.16182 9.04092 6.10618 9.09656L2.9242 12.2785C2.77853 12.4242 2.86168 12.6737 3.06562 12.7028L5.58701 13.063C5.62599 12.8112 5.70311 12.5612 5.82116 12.3204C6.21343 11.5203 6.8033 10.3913 7.54587 9.20122ZM10.9786 18.4546L11.3388 20.9759C11.3679 21.1799 11.6174 21.263 11.7631 21.1174L14.945 17.9354C15.0007 17.8797 15.0269 17.8011 15.0157 17.7232L14.8404 16.4957C13.6503 17.2383 12.5213 17.8281 11.7211 18.2204C11.4803 18.3385 11.2304 18.4156 10.9786 18.4546ZM20.9175 4.17505C21.0008 3.53809 20.5035 3.04081 19.8665 3.12412C17.5432 3.42798 13.9556 4.23531 11.7427 6.28772C10.507 7.4338 9.40106 9.0125 8.53301 10.4627L13.5789 15.5086C15.0291 14.6405 16.6078 13.5346 17.7539 12.2989C19.8063 10.086 20.6136 6.4984 20.9175 4.17505ZM12.2249 16.2759L7.76572 11.8167C7.53598 12.2446 7.33548 12.6391 7.16801 12.9807C6.95969 13.4057 7.04843 13.9279 7.41161 14.2911L9.75047 16.63C10.1136 16.9931 10.6359 17.0819 11.0608 16.8736C11.4024 16.7061 11.797 16.5056 12.2249 16.2759ZM13.1773 6.97522C14.2512 5.90128 15.9924 5.90128 17.0664 6.97522C18.1403 8.04916 18.1403 9.79037 17.0664 10.8643C15.9924 11.9382 14.2512 11.9382 13.1773 10.8643C12.1033 9.79037 12.1033 8.04916 13.1773 6.97522ZM16.0057 8.03588C15.5175 7.54772 14.7261 7.54773 14.2379 8.03588C13.7498 8.52404 13.7498 9.31549 14.2379 9.80365C14.7261 10.2918 15.5175 10.2918 16.0057 9.80365C16.4939 9.31549 16.4939 8.52404 16.0057 8.03588ZM4.33843 15.4605C4.63133 15.7534 4.63133 16.2283 4.33843 16.5212L2.92422 17.9354C2.63133 18.2283 2.15645 18.2283 1.86356 17.9354C1.57067 17.6425 1.57067 17.1676 1.86356 16.8747L3.27777 15.4605C3.57067 15.1676 4.04554 15.1676 4.33843 15.4605ZM6.45975 17.5818C6.75265 17.8747 6.75265 18.3496 6.45975 18.6425L3.63133 21.4709C3.33843 21.7638 2.86356 21.7638 2.57067 21.4709C2.27777 21.178 2.27777 20.7031 2.57067 20.4102L5.39909 17.5818C5.69199 17.2889 6.16686 17.2889 6.45975 17.5818ZM8.58107 19.7031C8.87397 19.996 8.87397 20.4709 8.58107 20.7638L7.16686 22.178C6.87397 22.4709 6.39909 22.4709 6.1062 22.178C5.81331 21.8851 5.81331 21.4102 6.1062 21.1174L7.52041 19.7031C7.81331 19.4103 8.28818 19.4103 8.58107 19.7031Z" fill="currentColor"/>
</g></symbol><symbol id="search" viewBox="0 0 24 24"><g fill="none">
<path fill-rule="evenodd" clip-rule="evenodd" d="M11.6001 3.40002C7.79392 3.40002 4.6001 6.71104 4.6001 10.9334C4.6001 15.1557 7.79392 18.4667 11.6001 18.4667C13.4582 18.4667 15.1703 17.6776 16.4362 16.3787C16.4738 16.3261 16.5172 16.2764 16.5662 16.2305C16.5832 16.2145 16.6007 16.1992 16.6186 16.1846C17.8396 14.8371 18.6001 12.9937 18.6001 10.9334C18.6001 6.71104 15.4063 3.40002 11.6001 3.40002ZM18.5947 16.9321C19.8524 15.2855 20.6001 13.1917 20.6001 10.9334C20.6001 5.73002 16.6305 1.40002 11.6001 1.40002C6.56972 1.40002 2.6001 5.73002 2.6001 10.9334C2.6001 16.1367 6.56972 20.4667 11.6001 20.4667C13.7381 20.4667 15.6844 19.6845 17.2159 18.3856L20.8706 22.284C21.2483 22.6869 21.8811 22.7073 22.284 22.3296C22.687 21.9518 22.7074 21.319 22.3296 20.9161L18.5947 16.9321Z" fill="currentColor"/>
</g></symbol><symbol id="trash" viewBox="0 0 24 24"><g fill="none">
<path fill-rule="evenodd" clip-rule="evenodd" d="M7.83259 4.13037C8.2069 3.00743 9.25778 2.25 10.4415 2.25H13.5584C14.7421 2.25 15.793 3.00743 16.1673 4.13037L16.5405 5.25H17.5822C19.6084 5.25 20.765 7.56321 19.5493 9.18418C19.0304 9.87601 18.7499 10.7175 18.7499 11.5823V18C18.7499 20.6234 16.6233 22.75 13.9999 22.75H9.99995C7.3766 22.75 5.24995 20.6234 5.24995 18V11.5823C5.24995 10.7175 4.96946 9.87601 4.45058 9.18418C3.23485 7.56321 4.39146 5.25 6.41767 5.25H7.45938L7.83259 4.13037ZM7.98265 6.75C7.99428 6.75027 8.00589 6.75027 8.01746 6.75H15.9824C15.994 6.75027 16.0056 6.75027 16.0172 6.75H17.5822C18.3724 6.75 18.8234 7.65206 18.3493 8.28418C17.6357 9.23566 17.2499 10.3929 17.2499 11.5823V18C17.2499 19.7949 15.7949 21.25 13.9999 21.25H9.99995C8.20502 21.25 6.74995 19.7949 6.74995 18V11.5823C6.74995 10.3929 6.36419 9.23566 5.65058 8.28418C5.1765 7.65206 5.62753 6.75 6.41767 6.75H7.98265ZM14.9594 5.25H9.04052L9.25561 4.60472C9.42576 4.09429 9.90343 3.75 10.4415 3.75H13.5584C14.0965 3.75 14.5741 4.09429 14.7443 4.60472L14.9594 5.25ZM9.99995 10.25C10.4142 10.25 10.7499 10.5858 10.7499 11L10.7499 17C10.7499 17.4142 10.4142 17.75 9.99995 17.75C9.58574 17.75 9.24995 17.4142 9.24995 17L9.24995 11C9.24995 10.5858 9.58574 10.25 9.99995 10.25ZM13.9999 10.25C14.4142 10.25 14.7499 10.5858 14.7499 11V17C14.7499 17.4142 14.4142 17.75 13.9999 17.75C13.5857 17.75 13.2499 17.4142 13.2499 17V11C13.2499 10.5858 13.5857 10.25 13.9999 10.25Z" fill="currentColor"/>
</g></symbol><symbol id="zoom" viewBox="0 0 24 24"><g fill="none">
<path fill-rule="evenodd" clip-rule="evenodd" d="M11 3.75C6.99594 3.75 3.75 6.99594 3.75 11C3.75 15.0041 6.99594 18.25 11 18.25C15.0041 18.25 18.25 15.0041 18.25 11C18.25 6.99594 15.0041 3.75 11 3.75ZM2.25 11C2.25 6.16751 6.16751 2.25 11 2.25C15.8325 2.25 19.75 6.16751 19.75 11C19.75 13.2629 18.891 15.3252 17.4812 16.8785L22.0303 21.4277C22.3232 21.7206 22.3232 22.1954 22.0303 22.4883C21.7374 22.7812 21.2626 22.7812 20.9697 22.4883L16.3814 17.9C14.8971 19.0592 13.0292 19.75 11 19.75C6.16751 19.75 2.25 15.8325 2.25 11ZM11 7.25C11.4142 7.25 11.75 7.58579 11.75 8V10.25H14C14.4142 10.25 14.75 10.5858 14.75 11C14.75 11.4142 14.4142 11.75 14 11.75H11.75V14C11.75 14.4142 11.4142 14.75 11 14.75C10.5858 14.75 10.25 14.4142 10.25 14V11.75H8.00002C7.5858 11.75 7.25002 11.4142 7.25002 11C7.25002 10.5858 7.5858 10.25 8.00002 10.25H10.25V8C10.25 7.58579 10.5858 7.25 11 7.25Z" fill="currentColor"/>
</g></symbol></svg>