<svg width="230" height="91" viewBox="0 0 230 91" fill="none" xmlns="http://www.w3.org/2000/svg">
<g clip-path="url(#clip0_164_15164)">
<path fill-rule="evenodd" clip-rule="evenodd" d="M163.106 7.14822H184.353L171.52 66.915H150.273L163.106 7.14822Z" fill="#FEFEFE"/>
<path fill-rule="evenodd" clip-rule="evenodd" d="M185.929 -0.199104H208.745L194.061 66.915H171.52L185.929 -0.199104Z" fill="#1ACEF2"/>
<path fill-rule="evenodd" clip-rule="evenodd" d="M229.823 8.80625L217.11 66.915H193.814L206.767 8.80625H229.823Z" fill="#FD5679"/>
<path d="M215.163 75.4962L214.641 77.7501H209.063L208.569 79.8709H213.753L213.224 82.1213H208.047L207.356 85.1079H212.917L212.406 87.3584H203.755L206.509 75.4927H215.163V75.4962ZM200.733 87.3619H197.718L199.587 79.3871L192.756 87.3619H189.822L192.576 75.4962H195.592L193.899 82.7243L200.194 75.4962H203.491L200.733 87.3619ZM189.54 75.4962L186.79 87.3619H183.693L184.91 82.1248H180.386L179.169 87.3619H176.073L178.827 75.4962H181.92L180.904 79.8709H185.428L186.444 75.4962H189.54ZM176.27 75.4962L175.748 77.7501H170.169L169.676 79.8709H174.86L174.331 82.1213H169.154L168.463 85.1079H174.024L173.512 87.3584H164.862L167.616 75.4927H176.27V75.4962ZM159.957 87.3619H145.534L148.288 75.4962H151.37L149.141 85.1079H152.551L154.784 75.4962H157.869L155.637 85.1079H159.043L161.276 75.4962H164.361L162.133 85.0939H163.31L162.15 90.0891H159.322L159.957 87.3619ZM145.728 75.4962L145.206 77.7501H139.627L139.133 79.8709H144.317L143.788 82.1213H138.611L137.92 85.1079H143.481L142.97 87.3584H134.32L137.074 75.4927H145.728V75.4962ZM131.315 87.3619H128.215L130.017 79.601L126.752 84.5716H124.622L123.55 79.2715L121.674 87.3619H118.761L121.515 75.4962H125.045L126.375 81.4483L130.419 75.4962H134.073L131.315 87.3619ZM113.545 82.8084L113.059 78.5844L110.625 82.8084H113.545ZM117.16 87.3619H114.043L113.767 84.9292H109.412L108.012 87.3619H104.796L111.944 75.4962H115.499L117.16 87.3619ZM104.641 83.3132C104.641 83.9582 104.496 84.5506 104.204 85.0904C103.915 85.6302 103.498 86.0789 102.955 86.4435C102.402 86.8221 101.728 87.1095 100.945 87.3128C100.159 87.5126 99.2456 87.6108 98.2088 87.6108C97.3413 87.6108 96.5161 87.5372 95.7368 87.3864C94.9504 87.2357 94.2909 87.0534 93.7584 86.8361L94.3755 84.2141H94.6612C95.169 84.5401 95.7297 84.824 96.3504 85.0624C96.9675 85.3007 97.5952 85.4199 98.23 85.4199C98.6884 85.4199 99.1186 85.3778 99.5136 85.2937C99.9121 85.2061 100.24 85.0764 100.508 84.8976C100.783 84.7153 100.998 84.4945 101.15 84.2316C101.301 83.9722 101.376 83.6567 101.376 83.2851C101.376 82.8364 101.224 82.521 100.928 82.3352C100.628 82.1494 100.106 82.0582 99.3725 82.0582H97.0274L97.5211 80.0181H99.7287C100.526 80.0181 101.122 79.8919 101.52 79.6465C101.919 79.3977 102.116 79.0296 102.116 78.5353C102.116 78.1883 101.926 77.9219 101.545 77.7291C101.164 77.5363 100.656 77.4417 100.018 77.4417C99.51 77.4417 98.9282 77.5293 98.2793 77.7011C97.6269 77.8763 96.9005 78.1532 96.0965 78.5318H95.7967L96.375 76.036C96.8723 75.8607 97.5352 75.6855 98.3604 75.5102C99.1891 75.3384 100.039 75.2508 100.91 75.2508C102.321 75.2508 103.414 75.4786 104.19 75.9343C104.965 76.39 105.353 77.028 105.353 77.8518C105.353 78.6019 105.068 79.2574 104.503 79.8183C103.936 80.3792 103.245 80.7507 102.426 80.94L102.402 81.0557C102.638 81.0978 102.895 81.1749 103.167 81.2871C103.442 81.4027 103.682 81.543 103.886 81.7112C104.105 81.8865 104.285 82.1073 104.429 82.3737C104.57 82.6437 104.641 82.9556 104.641 83.3132ZM89.2622 83.9617C89.6219 83.4884 89.9075 82.9381 90.1121 82.3141C90.3166 81.6902 90.4224 80.9716 90.4224 80.1583C90.4224 79.31 90.2179 78.644 89.8088 78.1638C89.3997 77.6835 88.8179 77.4417 88.0597 77.4417C87.5625 77.4417 87.0899 77.5573 86.6385 77.7817C86.1871 78.006 85.771 78.3496 85.3937 78.8123C85.0234 79.2539 84.7307 79.8008 84.505 80.4563C84.2793 81.1153 84.17 81.8514 84.17 82.6717C84.17 83.5796 84.3816 84.2666 84.7977 84.7294C85.2174 85.1921 85.7957 85.4234 86.5363 85.4234C87.0511 85.4234 87.5448 85.2972 88.0209 85.0448C88.4934 84.7889 88.906 84.4279 89.2622 83.9617ZM93.6562 79.913C93.6562 80.8839 93.4904 81.8409 93.1589 82.7804C92.8274 83.7198 92.3478 84.5436 91.7166 85.2411C91.0254 86.0053 90.2249 86.5942 89.3045 86.9973C88.3841 87.404 87.3297 87.6073 86.1342 87.6073C84.505 87.6073 83.232 87.1901 82.3116 86.3523C81.3912 85.5146 80.9292 84.3648 80.9292 82.8995C80.9292 81.8725 81.1055 80.891 81.4582 79.962C81.8108 79.0331 82.3151 78.2128 82.971 77.5083C83.6128 76.8212 84.4063 76.2779 85.3478 75.8642C86.2929 75.4576 87.3227 75.2508 88.4405 75.2508C90.0733 75.2508 91.3534 75.6679 92.2703 76.5092C93.1942 77.3505 93.6562 78.4828 93.6562 79.913ZM80.8481 77.7992H77.1171L74.9025 87.3619H71.8098L74.0244 77.7992H70.3181L70.8471 75.4962H81.3841L80.8481 77.7992ZM65.8184 79.0752C65.8184 78.616 65.6491 78.2724 65.3106 78.0516C64.9756 77.8272 64.4748 77.7186 63.8083 77.7186H62.5635L61.7418 81.259H62.8491C63.7837 81.259 64.5172 81.0697 65.0355 80.6911C65.5575 80.3126 65.8184 79.7727 65.8184 79.0752ZM69.1015 78.7772C69.1015 80.1899 68.5126 81.3291 67.3348 82.195C66.1569 83.0608 64.5101 83.492 62.3942 83.492H61.227L60.3313 87.3584H57.2351L59.9892 75.4927H64.2773C65.0567 75.4927 65.7373 75.5487 66.3192 75.6539C66.8975 75.7591 67.3983 75.9414 67.8214 76.2043C68.2411 76.4637 68.5585 76.8037 68.7771 77.2173C68.9922 77.638 69.1015 78.1568 69.1015 78.7772ZM52.0794 83.9617C52.4391 83.4884 52.7247 82.9381 52.9293 82.3141C53.1338 81.6902 53.2396 80.9716 53.2396 80.1583C53.2396 79.31 53.0351 78.644 52.626 78.1638C52.2169 77.6835 51.6351 77.4417 50.8769 77.4417C50.3796 77.4417 49.9071 77.5573 49.4557 77.7817C49.0043 78.006 48.5882 78.3496 48.2109 78.8123C47.8406 79.2539 47.5479 79.8008 47.3222 80.4563C47.0965 81.1153 46.9872 81.8514 46.9872 82.6717C46.9872 83.5796 47.1988 84.2666 47.6149 84.7294C48.0346 85.1921 48.6129 85.4234 49.3534 85.4234C49.8683 85.4234 50.362 85.2972 50.8381 85.0448C51.3141 84.7889 51.7267 84.4279 52.0794 83.9617ZM56.4769 79.913C56.4769 80.8839 56.3111 81.8409 55.9796 82.7804C55.6481 83.7198 55.1686 84.5436 54.5373 85.2411C53.8461 86.0053 53.0456 86.5942 52.1252 86.9973C51.2048 87.404 50.1504 87.6073 48.955 87.6073C47.3257 87.6073 46.0527 87.1901 45.1323 86.3523C44.2119 85.5146 43.7499 84.3648 43.7499 82.8995C43.7499 81.8725 43.9262 80.891 44.2789 79.962C44.6315 79.0331 45.1358 78.2128 45.7917 77.5083C46.4336 76.8212 47.227 76.2779 48.1686 75.8642C49.1136 75.4576 50.1434 75.2508 51.2612 75.2508C52.894 75.2508 54.1741 75.6679 55.091 76.5092C56.0149 77.3505 56.4769 78.4828 56.4769 79.913ZM42.9953 75.4962L40.2411 87.3619H37.1449L39.3771 77.7501H34.8527L32.624 87.3619H29.5278L32.2819 75.4962H42.9953ZM26.5233 87.3619H23.4235L25.2255 79.601L21.96 84.5716H19.8301L18.758 79.2715L16.882 87.3619H13.9691L16.7233 75.4962H20.2532L21.5827 81.4483L25.6275 75.4962H29.2809L26.5233 87.3619ZM10.9469 87.3619H7.93184L9.80085 79.3871L2.97013 87.3619H0.0361328L2.79028 75.4962H5.80539L4.1127 82.7243L10.4074 75.4962H13.7046L10.9469 87.3619Z" fill="#FEFEFE"/>
<path d="M144.465 25.3026C145.241 24.286 145.851 23.1082 146.292 21.7622C146.733 20.4231 146.955 18.8772 146.955 17.1316C146.955 15.3088 146.514 13.8786 145.639 12.8445C144.765 11.8104 143.513 11.2951 141.884 11.2951C140.815 11.2951 139.796 11.5405 138.83 12.0242C137.86 12.5079 136.968 13.2441 136.157 14.2396C135.363 15.1861 134.729 16.3674 134.246 17.773C133.762 19.1857 133.523 20.7701 133.523 22.5263C133.523 24.4788 133.974 25.9476 134.873 26.9431C135.772 27.9352 137.017 28.4329 138.611 28.4329C139.715 28.4329 140.773 28.163 141.796 27.6197C142.818 27.0763 143.707 26.3051 144.465 25.3026ZM153.902 16.6022C153.902 18.6879 153.549 20.7421 152.837 22.7577C152.125 24.7803 151.091 26.5435 149.741 28.0438C148.26 29.6843 146.539 30.9463 144.564 31.8156C142.589 32.6849 140.322 33.1231 137.754 33.1231C134.26 33.1231 131.52 32.2222 129.545 30.431C127.563 28.6327 126.579 26.1614 126.579 23.0136C126.579 20.8052 126.956 18.6985 127.715 16.7039C128.473 14.7058 129.555 12.9461 130.962 11.4353C132.338 9.96304 134.041 8.78874 136.069 7.90889C138.1 7.03254 140.311 6.59437 142.709 6.59437C146.218 6.59437 148.961 7.49525 150.936 9.29702C152.914 11.1023 153.902 13.5385 153.902 16.6022ZM124.95 7.12368L119.039 32.6008H112.392L115.002 21.352H105.29L102.68 32.6008H96.033L101.95 7.12368H108.591L106.411 16.5181H116.13L118.31 7.12368H124.95ZM78.5947 19.5187L72.3529 7.12368H79.5504L83.3342 15.116L90.8597 7.12368H98.1594L86.0531 19.8097L92.3761 32.6008H85.1786L81.3171 24.1528L73.5484 32.6008H66.2486L78.5947 19.5187ZM69.5282 7.12368L68.4068 11.9611H56.424L55.366 16.5181H66.4955L65.36 21.3555H54.2411L52.7529 27.7704H64.6935L63.5932 32.6078H45.0194L50.9368 7.13069H69.5282V7.12368ZM45.8693 12.0663H37.8537L33.093 32.6043H26.4527L31.2064 12.0663H23.2437L24.3792 7.12368H47.0084L45.8693 12.0663Z" fill="#FEFEFE"/>
<path d="M144.003 65.597H136.7L130.924 55.2596H128.836L126.438 65.597H119.78L125.698 40.1199H132.355L129.929 50.5624C130.959 50.5168 131.77 50.31 132.352 49.949C132.934 49.5809 133.833 48.652 135.05 47.1622C135.349 46.7836 135.702 46.3279 136.125 45.7881C136.541 45.2552 136.926 44.761 137.282 44.3053C137.98 43.4395 138.657 42.7173 139.31 42.146C139.962 41.5676 140.59 41.1294 141.203 40.8385C141.796 40.551 142.431 40.3547 143.097 40.2495C143.76 40.1374 144.578 40.0848 145.555 40.0848C146.144 40.0848 146.659 40.0918 147.117 40.1093C147.576 40.1269 147.918 40.1374 148.133 40.1374L146.877 45.5532H145.142C144.613 45.5532 144.197 45.6058 143.883 45.718C143.573 45.8231 143.22 46.0264 142.818 46.3244C142.483 46.5768 142.155 46.8852 141.838 47.2603C141.514 47.6284 141.073 48.1787 140.509 48.9079C139.592 50.1067 138.827 50.9585 138.223 51.4598C137.613 51.961 137.053 52.3256 136.538 52.5535L144.003 65.597ZM106.129 66.1228C102.663 66.1228 99.9898 65.2745 98.1067 63.5779C96.2271 61.8778 95.2855 59.4485 95.2855 56.2832C95.2855 53.7768 95.7016 51.5124 96.5304 49.4722C97.3661 47.4391 98.5122 45.6759 99.9686 44.1931C101.39 42.7489 103.1 41.6237 105.093 40.8104C107.085 39.9972 109.176 39.594 111.37 39.594C113.133 39.594 114.78 39.7763 116.293 40.1304C117.802 40.4914 119.17 41.0172 120.387 41.7183L118.87 47.8983H118.112C117.019 46.731 115.936 45.8722 114.857 45.3218C113.775 44.7715 112.505 44.4981 111.049 44.4981C108.485 44.4981 106.376 45.5216 104.719 47.5688C103.054 49.6194 102.229 52.2345 102.229 55.4068C102.229 57.447 102.688 58.9227 103.604 59.8412C104.521 60.7596 105.865 61.2153 107.635 61.2153C109.215 61.2153 110.703 60.8998 112.089 60.2688C113.475 59.6378 114.794 58.8316 116.032 57.8501H116.719L115.221 63.9354C114.702 64.1388 114.103 64.3841 113.415 64.6786C112.727 64.9695 112.068 65.2044 111.433 65.3867C110.611 65.625 109.836 65.8073 109.116 65.937C108.411 66.0597 107.413 66.1228 106.129 66.1228ZM87.7777 65.597H81.3032L85.3163 48.4697L70.6427 65.597H64.3445L70.2619 40.1199H76.7364L73.1007 55.6382L86.6175 40.1199H93.6986L87.7777 65.597ZM53.2785 58.2953C54.0543 57.2787 54.6644 56.1009 55.1052 54.7548C55.546 53.4158 55.7682 51.8699 55.7682 50.1242C55.7682 48.3014 55.3274 46.8712 54.4528 45.8371C53.5783 44.803 52.3264 44.2877 50.6972 44.2877C49.6286 44.2877 48.6095 44.5331 47.6397 45.0169C46.67 45.5006 45.7778 46.2367 44.9667 47.2288C44.1732 48.1752 43.5385 49.3565 43.0589 50.7622C42.5758 52.1749 42.336 53.7593 42.336 55.5155C42.336 57.468 42.7873 58.9368 43.6866 59.9323C44.5858 60.9243 45.8307 61.4221 47.4246 61.4221C48.5284 61.4221 49.5863 61.1522 50.609 60.6088C51.6352 60.0725 52.5203 59.3013 53.2785 58.2953ZM62.7153 49.5984C62.7153 51.6841 62.3626 53.7383 61.6503 55.7539C60.938 57.7765 59.9047 59.5397 58.5541 61.04C57.073 62.6805 55.3521 63.9424 53.3773 64.8118C51.4024 65.6811 49.1349 66.1193 46.5677 66.1193C43.073 66.1193 40.3329 65.2184 38.3581 63.4272C36.3763 61.6289 35.3924 59.1576 35.3924 56.0098C35.3924 53.8014 35.7697 51.6911 36.5279 49.7001C37.2861 47.702 38.3652 45.9458 39.7758 44.4315C41.1511 42.9592 42.8543 41.7849 44.882 40.9016C46.9168 40.0252 49.1244 39.587 51.5223 39.587C55.0312 39.587 57.7747 40.4879 59.7495 42.2932C61.7314 44.0985 62.7153 46.5312 62.7153 49.5984ZM33.7667 40.1199L27.8564 65.597H21.209L26.005 44.9538H16.2861L11.4972 65.597H4.84985L10.7672 40.1199H33.7667Z" fill="#FEFEFE"/>
</g>
<defs>
<clipPath id="clip0_164_15164">
<rect width="230" height="91" fill="white"/>
</clipPath>
</defs>
</svg>
